<?xml version="1.0" encoding="utf-8"?>
<!-- Generator: Adobe Illustrator 26.0.1, SVG Export Plug-In . SVG Version: 6.00 Build 0)  -->
<svg version="1.1" id="Layer_1" xmlns="http://www.w3.org/2000/svg" xmlns:xlink="http://www.w3.org/1999/xlink" x="0px" y="0px"
	 viewBox="0 0 1366 768" style="enable-background:new 0 0 1366 768;" xml:space="preserve">
<style type="text/css">
	
		.st0{clip-path:url(#SVGID_00000094587403195331638260000015721191592399391916_);fill-rule:evenodd;clip-rule:evenodd;fill:#FEFEFE;}
	
		.st1{clip-path:url(#SVGID_00000094587403195331638260000015721191592399391916_);fill:none;stroke:#E45D25;stroke-width:0.216;stroke-miterlimit:22.9256;}
	
		.st2{clip-path:url(#SVGID_00000094587403195331638260000015721191592399391916_);fill-rule:evenodd;clip-rule:evenodd;fill:#E45D25;}
	.st3{clip-path:url(#SVGID_00000094587403195331638260000015721191592399391916_);fill:#E45D25;}
</style>
<g>
	<g>
		<defs>
			<rect id="SVGID_1_" x="382.88" y="369.7" width="453.54" height="124.72"/>
		</defs>
		<clipPath id="SVGID_00000115490190122936496380000008045591880431608766_">
			<use xlink:href="#SVGID_1_"  style="overflow:visible;"/>
		</clipPath>
		
			<path style="clip-path:url(#SVGID_00000115490190122936496380000008045591880431608766_);fill-rule:evenodd;clip-rule:evenodd;fill:#FEFEFE;" d="
			M429.21,378.61c22.9,0,41.46,18.56,41.46,41.46c0,22.9-18.56,41.46-41.46,41.46c-2.46,0-4.86-0.22-7.2-0.63l4.08,15.42
			c1.69,6.37-2.17,13-8.56,14.68c-6.39,1.68-12.99-2.17-14.68-8.56l-13.43-50.68c-1.13-3.84-1.67-7.62-1.67-11.68
			C387.76,397.17,406.32,378.61,429.21,378.61z"/>
		
			<path style="clip-path:url(#SVGID_00000115490190122936496380000008045591880431608766_);fill:none;stroke:#E45D25;stroke-width:0.216;stroke-miterlimit:22.9256;" d="
			M429.21,378.61c22.9,0,41.46,18.56,41.46,41.46c0,22.9-18.56,41.46-41.46,41.46c-2.46,0-4.86-0.22-7.2-0.63l4.08,15.42
			c1.69,6.37-2.17,13-8.56,14.68c-6.39,1.68-12.99-2.17-14.68-8.56l-13.43-50.68c-1.13-3.84-1.67-7.62-1.67-11.68
			C387.76,397.17,406.32,378.61,429.21,378.61z"/>
		
			<path style="clip-path:url(#SVGID_00000115490190122936496380000008045591880431608766_);fill-rule:evenodd;clip-rule:evenodd;fill:#E45D25;" d="
			M460.81,434.87c2.8-6.39-6.63-9.47-9.04-3.83c-4.25,8.07-12.6,13.63-22.36,13.63c-14.01,0-25.37-11.36-25.37-25.37
			c0-14.01,11.36-25.37,25.37-25.37c5.24,0,10.1,1.58,14.14,4.3c6.1,3.83,10.34-5.19,5.27-8c-5.61-3.76-12.34-5.94-19.59-5.94
			c-19.47,0-35.25,15.78-35.25,35.25c0,3.42,0.46,6.66,1.42,9.94l0.04,0.14l13.44,50.8c1.97,7.43,12.6,4.27,10.55-3.06l-7.8-27.97
			c4.03,3.26,12.66,5.39,17.6,5.39C443.18,454.77,455.09,446.62,460.81,434.87 M431.25,413.44l24.77-6.64
			c2.68-0.72,5.46,0.89,6.18,3.57v0.01c0.72,2.68-0.89,5.46-3.57,6.18l-24.77,6.64c-2.68,0.72-5.47-0.89-6.18-3.57v0
			C426.96,416.94,428.56,414.16,431.25,413.44z"/>
		
			<path style="clip-path:url(#SVGID_00000115490190122936496380000008045591880431608766_);fill-rule:evenodd;clip-rule:evenodd;fill:#FEFEFE;" d="
			M760.28,392.58c-3.35-2.57-6.61,1.72-3.54,4.33c9.53,9.48,1.9,30.28-15.85,26.52c-12.01-3.25-14.67-18.31-7.98-25.99
			c4.39-3.54-0.77-7.12-3.24-4.66c-12.94,12.73-4.98,36.28,16.31,36.21c9.32-0.03,17.76-7.45,19.99-15.41
			C768.19,405.63,766.35,397.62,760.28,392.58 M742.1,406.87v-15.48c0-1.71,1.4-3.1,3.1-3.1h0c1.71,0,3.1,1.4,3.1,3.1v15.48
			c0,1.71-1.4,3.1-3.1,3.1h0C743.49,409.97,742.1,408.58,742.1,406.87z M744.97,372.76c18.79,0,34.03,15.24,34.03,34.03
			c0,18.79-15.24,34.03-34.03,34.03c-18.79,0-34.03-15.24-34.03-34.03C710.94,388,726.18,372.76,744.97,372.76z"/>
		<path style="clip-path:url(#SVGID_00000115490190122936496380000008045591880431608766_);fill:#E45D25;" d="M826.72,481.93
			c-0.08,1.25-0.22,2.46-0.42,3.64c-0.2,1.17-0.49,2.24-0.88,3.2c-0.38,0.96-0.8,1.61-1.25,1.96c-0.45,0.35-0.97,0.52-1.59,0.52
			c-0.66,0-1.29-0.13-1.89-0.39h0.01c-0.52-0.23-0.98-0.53-1.36-0.91c-0.39-0.38-0.58-0.7-0.58-0.96c0-0.24,0.06-0.43,0.17-0.58
			c0.12-0.14,0.27-0.22,0.45-0.22c0.16,0,0.3,0.07,0.41,0.22c0.63,0.85,1.54,1.27,2.74,1.27c0.49,0,0.96-0.53,1.41-1.6
			c0.45-1.06,0.74-2.34,0.86-3.83c-1.52,1.26-2.69,1.88-3.51,1.88c-0.53,0-0.95-0.22-1.26-0.66c-0.31-0.44-0.47-0.97-0.47-1.6
			c0-0.62,0.14-1.53,0.42-2.71c0.28-1.18,0.51-1.92,0.71-2.21c0.19-0.28,0.51-0.43,0.95-0.43c0.23,0,0.42,0.11,0.54,0.32
			c0.13,0.21,0.19,0.45,0.19,0.71c0,0.08-0.18,0.51-0.53,1.3c-0.43,0.97-0.65,1.8-0.65,2.5c0,0.36,0.05,0.63,0.14,0.82
			c0.1,0.19,0.2,0.28,0.3,0.28c0.23,0,0.52-0.07,0.86-0.22c0.34-0.15,0.73-0.41,1.19-0.78c0.45-0.37,0.75-0.65,0.88-0.84
			c0.13-0.19,0.24-0.43,0.32-0.74c0.08-0.3,0.14-0.96,0.18-1.98c0.03-0.6,0.05-0.97,0.09-1.13c0.03-0.15,0.12-0.29,0.26-0.42
			c0.14-0.13,0.33-0.19,0.57-0.19c0.32,0,0.55,0.07,0.69,0.22c0.14,0.14,0.2,0.48,0.2,1.02L826.72,481.93z M816.71,484.51
			c-0.02-0.28-0.44-0.62-1.27-1.02c-1.01-0.51-1.66-0.95-1.94-1.31c-0.28-0.37-0.42-0.77-0.42-1.2c0-0.91,0.49-1.71,1.46-2.39
			c0.98-0.68,1.89-1.02,2.73-1.02c0.83,0,1.25,0.38,1.25,1.13c0,0.2-0.1,0.38-0.28,0.54c-0.19,0.16-0.35,0.24-0.48,0.24
			c-0.05,0-0.15-0.04-0.29-0.11c-0.14-0.07-0.24-0.11-0.32-0.11c-0.44,0-0.92,0.15-1.44,0.46c-0.53,0.31-0.79,0.67-0.79,1.08
			c0,0.2,0.09,0.39,0.28,0.58c0.19,0.19,0.57,0.42,1.14,0.71c0.85,0.42,1.41,0.8,1.68,1.14c0.27,0.34,0.41,0.72,0.41,1.13
			c0,0.75-0.49,1.38-1.46,1.88c-0.97,0.5-2.06,0.75-3.27,0.75c-0.89,0-1.34-0.34-1.34-1.01c0-0.24,0.09-0.46,0.28-0.63
			c0.19-0.17,0.39-0.26,0.63-0.26c0.09,0,0.24,0.03,0.44,0.11c0.2,0.08,0.38,0.11,0.54,0.11c0.46,0,0.95-0.08,1.45-0.23
			C816.21,484.93,816.55,484.74,816.71,484.51z M809.01,479.61c-0.5,0-1.14,0.57-1.94,1.72c-0.79,1.15-1.19,2.12-1.19,2.93
			c0,0.42,0.08,0.63,0.25,0.63c0.58,0,1.29-0.54,2.14-1.61c0.85-1.08,1.27-2.02,1.27-2.83c0-0.26-0.06-0.46-0.17-0.61
			C809.27,479.68,809.15,479.61,809.01,479.61z M809.45,483.89c-1.29,1.78-2.54,2.67-3.74,2.67c-0.44,0-0.83-0.18-1.14-0.55
			c-0.32-0.37-0.48-0.83-0.48-1.4c0-1.36,0.58-2.81,1.74-4.35c1.16-1.54,2.33-2.31,3.51-2.31c0.6,0,0.99,0.32,1.18,0.95
			c0.56,0,0.85,0.23,0.85,0.68c0,0.22-0.06,0.61-0.16,1.17c-0.2,1.06-0.29,1.91-0.29,2.54c0,0.66,0.04,1.12,0.13,1.39
			c0.09,0.27,0.15,0.44,0.19,0.53c0.04,0.08,0.16,0.17,0.35,0.26c0.2,0.1,0.29,0.23,0.29,0.41c0,0.26-0.13,0.48-0.38,0.66
			c-0.25,0.18-0.52,0.26-0.79,0.26C809.77,486.79,809.36,485.83,809.45,483.89z M798.23,482.45c0.78-0.17,1.46-0.51,2.05-1.04
			c0.59-0.53,0.89-1.01,0.89-1.44c0-0.17-0.04-0.31-0.14-0.43c-0.09-0.12-0.21-0.17-0.35-0.17c-0.43,0-0.9,0.33-1.42,0.99
			C798.74,481.01,798.4,481.71,798.23,482.45z M803.18,483.82c0,0.53-0.43,1.17-1.29,1.92c-0.86,0.74-1.83,1.12-2.91,1.12
			c-0.83,0-1.48-0.27-1.96-0.82c-0.48-0.55-0.71-1.31-0.71-2.29c0-1.44,0.49-2.79,1.46-4.05c0.97-1.26,2.01-1.89,3.12-1.89
			c0.55,0,0.99,0.18,1.33,0.55c0.33,0.37,0.5,0.8,0.5,1.3c0,0.89-0.41,1.75-1.23,2.56c-0.82,0.81-1.87,1.37-3.16,1.68
			c-0.15,0.03-0.22,0.13-0.22,0.28c0,0.25,0.1,0.48,0.31,0.71c0.21,0.22,0.49,0.34,0.84,0.34c0.99,0,1.97-0.53,2.94-1.6
			c0.19-0.21,0.37-0.31,0.54-0.31C803.03,483.3,803.18,483.47,803.18,483.82z M784.37,482.45c0.78-0.17,1.46-0.51,2.05-1.04
			c0.59-0.53,0.89-1.01,0.89-1.44c0-0.17-0.05-0.31-0.14-0.43c-0.09-0.12-0.21-0.17-0.35-0.17c-0.43,0-0.9,0.33-1.42,0.99
			C784.88,481.01,784.54,481.71,784.37,482.45z M789.32,483.82c0,0.53-0.43,1.17-1.29,1.92c-0.86,0.74-1.83,1.12-2.91,1.12
			c-0.83,0-1.48-0.27-1.96-0.82c-0.48-0.55-0.71-1.31-0.71-2.29c0-1.44,0.49-2.79,1.46-4.05c0.97-1.26,2.01-1.89,3.12-1.89
			c0.55,0,0.99,0.18,1.33,0.55c0.33,0.37,0.5,0.8,0.5,1.3c0,0.89-0.41,1.75-1.23,2.56c-0.82,0.81-1.87,1.37-3.16,1.68
			c-0.15,0.03-0.22,0.13-0.22,0.28c0,0.25,0.1,0.48,0.31,0.71c0.21,0.22,0.49,0.34,0.84,0.34c0.99,0,1.97-0.53,2.94-1.6
			c0.19-0.21,0.37-0.31,0.54-0.31C789.17,483.3,789.32,483.47,789.32,483.82z M777.16,479.94c-0.64,0-1.32,0.51-2.02,1.54
			c-0.7,1.03-1.05,1.97-1.05,2.82c0,0.5,0.18,0.75,0.53,0.75c0.6,0,1.32-0.56,2.15-1.67c0.83-1.12,1.25-2,1.25-2.65
			c0-0.19-0.08-0.38-0.24-0.54C777.63,480.02,777.42,479.94,777.16,479.94z M777.98,483.89c-1.27,1.89-2.55,2.83-3.84,2.83
			c-0.52,0-0.94-0.22-1.26-0.64c-0.32-0.43-0.48-0.98-0.48-1.64c0-1.34,0.52-2.67,1.57-4c1.05-1.33,2.11-1.99,3.19-1.99
			c0.62,0,1.06,0.17,1.32,0.51c0.37-1.68,0.59-2.74,0.65-3.16c0.15-0.78,0.27-1.3,0.37-1.56c0.1-0.26,0.25-0.46,0.45-0.6
			c0.2-0.14,0.38-0.21,0.52-0.21c0.25,0,0.44,0.11,0.57,0.32c0.13,0.22,0.2,0.49,0.2,0.82c0,0.14-0.11,0.56-0.32,1.24
			c-0.35,1.11-0.68,2.45-0.98,4.02c-0.3,1.57-0.45,2.83-0.45,3.76c0,0.89,0.19,1.33,0.56,1.33c0.19,0,0.4-0.05,0.61-0.16
			c0.22-0.11,0.37-0.15,0.46-0.15c0.24,0,0.36,0.15,0.36,0.44c0,0.36-0.24,0.71-0.74,1.06c-0.49,0.35-0.95,0.53-1.39,0.53
			c-0.47,0-0.84-0.26-1.09-0.79C778.01,485.32,777.92,484.66,777.98,483.89z M768.55,479.61c-0.5,0-1.14,0.57-1.94,1.72
			c-0.79,1.15-1.19,2.12-1.19,2.93c0,0.42,0.08,0.63,0.25,0.63c0.58,0,1.29-0.54,2.14-1.61c0.85-1.08,1.27-2.02,1.27-2.83
			c0-0.26-0.06-0.46-0.17-0.61C768.81,479.68,768.68,479.61,768.55,479.61z M768.99,483.89c-1.29,1.78-2.54,2.67-3.74,2.67
			c-0.44,0-0.83-0.18-1.14-0.55c-0.32-0.37-0.48-0.83-0.48-1.4c0-1.36,0.58-2.81,1.74-4.35c1.16-1.54,2.33-2.31,3.51-2.31
			c0.6,0,0.99,0.32,1.18,0.95c0.56,0,0.85,0.23,0.85,0.68c0,0.22-0.06,0.61-0.16,1.17c-0.2,1.06-0.29,1.91-0.29,2.54
			c0,0.66,0.04,1.12,0.13,1.39c0.09,0.27,0.15,0.44,0.19,0.53c0.04,0.08,0.16,0.17,0.35,0.26c0.2,0.1,0.29,0.23,0.29,0.41
			c0,0.26-0.13,0.48-0.38,0.66c-0.25,0.18-0.52,0.26-0.79,0.26C769.31,486.79,768.9,485.83,768.99,483.89z M750.78,486.01
			c-0.06,0.53-0.34,0.79-0.85,0.79c-0.64,0-0.97-0.49-0.97-1.46c0-1.57,0.08-2.92,0.24-4.03c0.13-0.87,0.19-1.72,0.19-2.56
			c0-0.2,0.06-0.37,0.18-0.51c0.12-0.13,0.29-0.2,0.52-0.2c0.74,0,1.1,0.47,1.1,1.4c0,0.3-0.13,1.08-0.39,2.32
			c-0.16,0.74-0.24,1.28-0.24,1.61c1.41-3.23,2.68-4.84,3.8-4.84c0.46,0,0.83,0.19,1.1,0.57c0.28,0.38,0.42,1.22,0.43,2.53
			c0,1.19,0.06,1.79,0.18,1.79c0.09,0,0.4-0.58,0.92-1.74c0.58-1.28,1.08-2.12,1.5-2.53c0.42-0.41,0.85-0.62,1.31-0.62
			c0.55,0,0.94,0.25,1.19,0.74c0.25,0.49,0.42,1.32,0.52,2.49c0.07,0.92,0.17,1.62,0.3,2.1c0.12,0.47,0.34,0.79,0.64,0.94
			c0.25,0.12,0.37,0.31,0.37,0.56c0,0.22-0.14,0.44-0.42,0.67c-0.28,0.22-0.56,0.33-0.85,0.33c-0.5,0-0.89-0.26-1.18-0.77
			c-0.28-0.52-0.47-1.56-0.57-3.11c-0.05-0.75-0.11-1.25-0.17-1.49c-0.06-0.24-0.15-0.37-0.27-0.37c-0.11,0-0.27,0.18-0.47,0.55
			c-0.21,0.37-0.56,1.1-1.07,2.19c-0.45,0.99-0.83,1.68-1.15,2.07c-0.32,0.39-0.67,0.59-1.04,0.59c-0.28,0-0.57-0.13-0.86-0.38
			c-0.29-0.26-0.44-1.19-0.47-2.8c-0.03-1.43-0.11-2.15-0.27-2.15c-0.21,0-0.7,0.64-1.49,1.91
			C751.78,483.87,751.18,485.01,750.78,486.01z M739.39,479.82c-0.36,0-0.84,0.23-1.43,0.68c-0.59,0.46-1.13,1.07-1.64,1.84
			c-0.5,0.77-0.75,1.41-0.75,1.92c0,0.27,0.09,0.4,0.28,0.4c0.63,0,1.26-0.27,1.89-0.81c0.62-0.54,1.13-1.16,1.52-1.85
			c0.38-0.7,0.58-1.23,0.58-1.59c0-0.18-0.05-0.32-0.13-0.43C739.61,479.88,739.51,479.82,739.39,479.82z M739.21,484.11
			c-0.55,0.64-1.18,1.17-1.9,1.59c-0.73,0.41-1.35,0.62-1.88,0.62c-0.52,0-0.93-0.16-1.21-0.48c-0.29-0.32-0.43-0.76-0.43-1.32
			c0-0.8,0.29-1.68,0.87-2.66c0.58-0.98,1.38-1.83,2.4-2.55c1.02-0.72,1.95-1.08,2.77-1.08c0.45,0,0.84,0.13,1.17,0.39
			c0.08,0.06,0.15,0.11,0.21,0.15c0.12,0.09,0.23,0.25,0.33,0.48c0.1,0.23,0.15,0.42,0.15,0.57c0,0.09-0.09,0.4-0.28,0.93
			c-0.19,0.55-0.32,1.08-0.4,1.6c-0.08,0.52-0.23,1.81-0.45,3.87c-0.2,1.8-0.68,3.11-1.44,3.93c-0.76,0.83-1.6,1.24-2.52,1.24
			c-0.97,0-1.91-0.34-2.82-1.02c-0.91-0.68-1.37-1.24-1.37-1.68c0-0.39,0.18-0.59,0.55-0.59c0.14,0,0.43,0.15,0.87,0.45
			c1.12,0.77,2.08,1.16,2.88,1.16c0.61,0,1.12-0.4,1.53-1.2C738.64,487.7,738.97,486.24,739.21,484.11z M730.37,485.34
			c-0.24-0.46-0.41-1.33-0.52-2.59c-0.11-1.32-0.35-1.97-0.72-1.97c-0.35,0-0.97,0.68-1.84,2.06c-0.87,1.37-1.4,2.38-1.61,3.03
			c-0.05,0.2-0.13,0.36-0.25,0.49c-0.12,0.13-0.24,0.19-0.36,0.19c-0.74,0-1.12-0.36-1.12-1.07c0-0.24,0.07-0.79,0.22-1.65
			c0.19-1.11,0.29-2.47,0.29-4.07c0-0.24,0.1-0.5,0.3-0.77c0.2-0.28,0.42-0.41,0.64-0.41c0.29,0,0.5,0.07,0.66,0.22
			c0.15,0.15,0.23,0.54,0.23,1.19c0,0.49-0.14,1.43-0.42,2.84c1.07-2.61,2.25-3.92,3.57-3.92c1.14,0,1.81,0.94,2.01,2.81
			c0.2,1.91,0.42,2.87,0.68,2.87c0.11,0,0.24-0.03,0.39-0.08c0.18-0.06,0.32-0.09,0.42-0.09c0.23,0,0.35,0.14,0.35,0.43
			c0,0.26-0.16,0.54-0.49,0.84c-0.32,0.29-0.73,0.44-1.23,0.44C731.02,486.12,730.61,485.86,730.37,485.34L730.37,485.34z
			 M720.37,481.35L720.37,481.35c0.16-0.93,0.24-1.46,0.24-1.6c0-0.38,0.08-0.7,0.24-0.96c0.16-0.26,0.38-0.39,0.67-0.39
			c0.33,0,0.6,0.08,0.78,0.25c0.19,0.17,0.28,0.35,0.28,0.56c0,0.21-0.09,0.63-0.27,1.27l-0.05,0.17c-0.27,0.99-0.43,1.8-0.49,2.43
			c-0.06,0.63-0.08,1.13-0.08,1.52c0,0.31,0.05,0.73,0.15,1.26c0.02,0.09,0.02,0.17,0.02,0.23c0,0.12-0.11,0.28-0.32,0.48
			c-0.21,0.2-0.44,0.3-0.69,0.3c-0.65,0-0.97-0.51-0.97-1.54c0-0.87,0.12-1.94,0.35-3.19C720.28,481.86,720.33,481.6,720.37,481.35z
			 M723.93,475.01c0,0.37-0.16,0.69-0.47,0.96c-0.31,0.28-0.59,0.41-0.82,0.41c-0.29,0-0.56-0.13-0.79-0.39
			c-0.23-0.26-0.34-0.51-0.34-0.77c0-0.37,0.11-0.67,0.34-0.9c0.23-0.23,0.55-0.34,0.97-0.34c0.33,0,0.59,0.1,0.8,0.31
			C723.83,474.49,723.93,474.73,723.93,475.01z M715.8,480.21c-0.04,0-0.18,0.57-0.41,1.72c-0.23,1.15-0.35,1.84-0.35,2.08
			c0,0.42,0.04,0.72,0.13,0.88c0.09,0.17,0.23,0.25,0.42,0.25c0.28,0,0.54-0.05,0.79-0.15c0.25-0.1,0.59-0.33,1-0.67
			c0.26-0.22,0.47-0.33,0.65-0.33c0.14,0,0.26,0.04,0.34,0.13c0.09,0.08,0.13,0.18,0.13,0.3c0,0.45-0.35,0.96-1.05,1.54
			c-0.7,0.57-1.44,0.86-2.21,0.86c-0.65,0-1.14-0.2-1.49-0.6c-0.34-0.4-0.51-0.98-0.51-1.73c0-0.69,0.25-2.08,0.74-4.16
			c-0.31,0.04-0.53,0.05-0.66,0.05h-0.16c-0.22,0-0.46-0.08-0.69-0.23c-0.23-0.16-0.35-0.4-0.35-0.74c0-0.43,0.23-0.65,0.7-0.65
			l1.58-0.06c0.21-0.62,0.43-1.44,0.65-2.45c0.14-0.63,0.45-0.94,0.94-0.94c0.27,0,0.48,0.08,0.63,0.26
			c0.15,0.17,0.23,0.36,0.23,0.57c0,0.08-0.21,0.88-0.63,2.38c1.56-0.14,2.42-0.22,2.57-0.22c0.26,0,0.43,0.04,0.52,0.12
			c0.08,0.08,0.12,0.23,0.12,0.46c0,0.46-0.37,0.75-1.11,0.87L715.8,480.21z M709.01,485.34c-0.24-0.46-0.41-1.33-0.52-2.59
			c-0.11-1.32-0.35-1.97-0.72-1.97c-0.35,0-0.97,0.68-1.84,2.06c-0.87,1.37-1.4,2.38-1.61,3.03c-0.05,0.2-0.13,0.36-0.25,0.49
			c-0.12,0.13-0.24,0.19-0.36,0.19c-0.74,0-1.12-0.36-1.12-1.07c0-0.24,0.07-0.79,0.22-1.65c0.19-1.11,0.29-2.47,0.29-4.07
			c0-0.24,0.1-0.5,0.3-0.77c0.2-0.28,0.41-0.41,0.64-0.41c0.29,0,0.5,0.07,0.66,0.22c0.15,0.15,0.23,0.54,0.23,1.19
			c0,0.49-0.14,1.43-0.42,2.84c1.07-2.61,2.25-3.92,3.57-3.92c1.14,0,1.81,0.94,2.01,2.81c0.2,1.91,0.42,2.87,0.68,2.87
			c0.11,0,0.24-0.03,0.39-0.08c0.18-0.06,0.32-0.09,0.42-0.09c0.23,0,0.35,0.14,0.35,0.43c0,0.26-0.16,0.54-0.49,0.84
			c-0.32,0.29-0.73,0.44-1.23,0.44C709.65,486.12,709.24,485.86,709.01,485.34L709.01,485.34z M699,481.35L699,481.35
			c0.16-0.93,0.24-1.46,0.24-1.6c0-0.38,0.08-0.7,0.24-0.96c0.16-0.26,0.38-0.39,0.67-0.39c0.33,0,0.6,0.08,0.78,0.25
			c0.19,0.17,0.28,0.35,0.28,0.56c0,0.21-0.09,0.63-0.27,1.27l-0.04,0.17c-0.27,0.99-0.43,1.8-0.49,2.43
			c-0.06,0.63-0.08,1.13-0.08,1.52c0,0.31,0.05,0.73,0.15,1.26c0.02,0.09,0.02,0.17,0.02,0.23c0,0.12-0.11,0.28-0.32,0.48
			c-0.21,0.2-0.44,0.3-0.69,0.3c-0.65,0-0.97-0.51-0.97-1.54c0-0.87,0.12-1.94,0.35-3.19C698.92,481.86,698.96,481.6,699,481.35z
			 M702.56,475.01c0,0.37-0.16,0.69-0.47,0.96c-0.31,0.28-0.59,0.41-0.82,0.41c-0.29,0-0.56-0.13-0.79-0.39
			c-0.23-0.26-0.34-0.51-0.34-0.77c0-0.37,0.11-0.67,0.34-0.9c0.23-0.23,0.55-0.34,0.97-0.34c0.33,0,0.59,0.1,0.8,0.31
			C702.46,474.49,702.56,474.73,702.56,475.01z M692.51,482.65l0.12-0.25c0.6-1.25,1.24-2.26,1.92-3.04
			c0.69-0.78,1.36-1.17,2.01-1.17c0.5,0,0.91,0.14,1.23,0.43c0.32,0.29,0.48,0.63,0.48,1.02c0,0.25-0.06,0.46-0.16,0.64
			c-0.11,0.18-0.26,0.27-0.45,0.27c-0.3,0-0.58-0.13-0.83-0.39c-0.18-0.17-0.32-0.26-0.42-0.26c-0.37,0-0.98,0.6-1.85,1.79
			c-0.87,1.2-1.39,2.55-1.56,4.04c-0.06,0.43-0.17,0.73-0.36,0.91c-0.19,0.17-0.44,0.26-0.76,0.26c-0.34,0-0.58-0.2-0.72-0.61
			c-0.14-0.4-0.21-1.06-0.21-1.98c0-0.38,0.01-0.88,0.03-1.52c0.02-0.6,0.08-1.33,0.17-2.2c0.02-0.23,0.04-0.41,0.05-0.53
			c0.05-0.5,0.1-0.85,0.15-1.04c0.06-0.19,0.19-0.36,0.4-0.53c0.21-0.17,0.44-0.25,0.68-0.25c0.27,0,0.47,0.08,0.61,0.24
			c0.14,0.16,0.21,0.33,0.21,0.52c0,0.24-0.11,0.74-0.33,1.5c-0.08,0.26-0.15,0.58-0.2,0.94L692.51,482.65z M683.67,477.19
			l-0.44,4.06c1.41-0.25,2.66-0.69,3.73-1.32c1.07-0.63,1.61-1.3,1.61-2.02c0-0.86-0.65-1.29-1.95-1.29
			C685.73,476.62,684.74,476.81,683.67,477.19z M683.02,482.98c-0.12,1.19-0.18,2.15-0.18,2.87c0,0.28-0.08,0.53-0.24,0.76
			c-0.16,0.22-0.38,0.33-0.66,0.33c-0.6,0-0.91-0.37-0.91-1.1c0-0.41,0.14-1.78,0.43-4.12c0.23-1.89,0.34-3.02,0.34-3.38
			c0-0.42-0.02-0.65-0.05-0.71c-0.32-0.17-0.48-0.48-0.48-0.92c0-0.43,0.66-0.81,2-1.13c1.33-0.32,2.47-0.48,3.42-0.48
			c1.11,0,2,0.24,2.65,0.72c0.66,0.48,0.99,1.12,0.99,1.94c0,1.17-0.6,2.2-1.81,3.09c-1.21,0.89-2.68,1.52-4.41,1.88
			C683.47,482.85,683.1,482.94,683.02,482.98z"/>
		
			<path style="clip-path:url(#SVGID_00000115490190122936496380000008045591880431608766_);fill-rule:evenodd;clip-rule:evenodd;fill:#E45D25;" d="
			M765.46,387.43c-4.5-3.56-8.88,2.38-4.75,5.99c12.8,13.11,2.56,40.12-21.27,34.92c-16.12-4.49-19.69-23.56-10.71-34.19
			c5.89-4.9-1.03-9.85-4.36-6.45c-17.36,17.61-6.68,48.42,21.9,48.32c12.5-0.04,23.85-10.3,26.83-21.31
			C776.07,403.73,773.61,394.41,765.46,387.43"/>
		
			<path style="clip-path:url(#SVGID_00000115490190122936496380000008045591880431608766_);fill-rule:evenodd;clip-rule:evenodd;fill:#E45D25;" d="
			M741.05,404.73V381.8c0-2.76,1.87-5.01,4.17-5.01h0c2.29,0,4.17,2.26,4.17,5.01v22.93c0,2.74-1.89,5.01-4.17,5.01h0
			C742.94,409.74,741.05,407.48,741.05,404.73"/>
		
			<path style="clip-path:url(#SVGID_00000115490190122936496380000008045591880431608766_);fill-rule:evenodd;clip-rule:evenodd;fill:#E45D25;" d="
			M509.59,384.31c7.04,0,12.74,5.71,12.74,12.74c0,7.04-5.71,12.74-12.74,12.74c-7.04,0-12.74-5.71-12.74-12.74
			C496.85,390.02,502.56,384.31,509.59,384.31 M509.42,372.76c13.63,0,24.69,11.05,24.69,24.69c0,13.64-11.05,24.69-24.69,24.69
			c-4.41,0-8.55-1.16-12.13-3.18v16.86c0,3.42-2.8,6.22-6.22,6.22h0c-3.42,0-6.22-2.8-6.22-6.22c0-12.79-0.11-25.59-0.11-38.36
			C484.73,383.81,495.78,372.76,509.42,372.76z"/>
		
			<path style="clip-path:url(#SVGID_00000115490190122936496380000008045591880431608766_);fill-rule:evenodd;clip-rule:evenodd;fill:#E45D25;" d="
			M561.2,384.33c7.05,0,12.76,5.71,12.76,12.76c0,7.05-5.71,12.76-12.76,12.76c-7.05,0-12.76-5.71-12.76-12.76
			C548.44,390.04,554.15,384.33,561.2,384.33 M561.03,372.76c13.65,0,24.72,11.07,24.72,24.72c0,10.97-7.15,20.28-17.05,23.51
			l12.87,9.68c2.74,2.06,3.3,5.99,1.24,8.73l0,0c-2.06,2.74-5.99,3.3-8.73,1.24l-25.21-18.95v14.21c0,3.43-2.8,6.23-6.23,6.23h0
			c-3.43,0-6.23-2.8-6.23-6.23c0-12.8-0.11-25.62-0.11-38.41C536.3,383.83,547.37,372.76,561.03,372.76z"/>
		
			<path style="clip-path:url(#SVGID_00000115490190122936496380000008045591880431608766_);fill-rule:evenodd;clip-rule:evenodd;fill:#E45D25;" d="
			M595.97,372.76L595.97,372.76c3.49,0,6.34,2.86,6.34,6.34v56.61c0,3.48-2.85,6.34-6.34,6.34c-3.49,0-6.34-2.85-6.34-6.34V379.1
			C589.64,375.61,592.49,372.76,595.97,372.76"/>
		
			<path style="clip-path:url(#SVGID_00000115490190122936496380000008045591880431608766_);fill-rule:evenodd;clip-rule:evenodd;fill:#E45D25;" d="
			M615.49,372.76c2.28,0,4.38,1.24,5.51,3.21l23.11,37.34V379.1c0-3.49,2.85-6.34,6.34-6.34c3.48,0,6.34,2.86,6.34,6.34v55.65
			c0.07,4.17-1.09,5.8-2.86,6.73c-3.5,1.91-7.17,0.3-9.27-2.94l-22.83-37.14v34.31c0,3.48-2.85,6.34-6.34,6.34
			c-3.49,0-6.34-2.85-6.34-6.34V379.1C609.15,375.61,612.01,372.76,615.49,372.76"/>
		
			<path style="clip-path:url(#SVGID_00000115490190122936496380000008045591880431608766_);fill-rule:evenodd;clip-rule:evenodd;fill:#E45D25;" d="
			M707.09,379.09c0,3.48-2.8,6.33-6.22,6.33h-11.51v50.41c0,3.42-2.8,6.22-6.22,6.22c-3.42,0-6.22-2.8-6.22-6.22v-50.41h-11.42
			c-3.42,0-6.22-2.85-6.22-6.33c0-3.48,2.8-6.33,6.22-6.33h35.36C704.29,372.76,707.09,375.61,707.09,379.09"/>
		
			<path style="clip-path:url(#SVGID_00000115490190122936496380000008045591880431608766_);fill-rule:evenodd;clip-rule:evenodd;fill:#E45D25;" d="
			M789.35,372.76c2.28,0,4.38,1.24,5.51,3.21l23.11,37.34V379.1c0-3.49,2.85-6.34,6.34-6.34c3.48,0,6.34,2.86,6.34,6.34v55.65
			c0.07,4.17-1.09,5.8-2.86,6.73c-3.5,1.91-7.17,0.3-9.27-2.94l-22.83-37.14v34.31c0,3.48-2.85,6.34-6.34,6.34
			c-3.49,0-6.34-2.85-6.34-6.34V379.1C783.02,375.61,785.87,372.76,789.35,372.76"/>
		<path style="clip-path:url(#SVGID_00000115490190122936496380000008045591880431608766_);fill:#E45D25;" d="M823.55,464.37v-1.14
			c0-0.99-0.29-1.81-0.86-2.46c-0.57-0.65-1.32-0.98-2.24-0.98c-1.04,0-1.85,0.4-2.43,1.22c-0.58,0.82-0.88,1.94-0.88,3.36
			c0,1.34,0.28,2.36,0.85,3.08c0.57,0.72,1.35,1.08,2.34,1.08c0.95,0,1.73-0.38,2.32-1.14
			C823.25,466.63,823.55,465.62,823.55,464.37 M828.15,471.75h-4.69v-2.09h-0.06c-1.07,1.64-2.64,2.46-4.7,2.46
			c-1.9,0-3.43-0.67-4.58-2.01c-1.16-1.34-1.74-3.21-1.74-5.61c0-2.51,0.64-4.52,1.91-6.03c1.28-1.51,2.95-2.27,5.01-2.27
			c1.96,0,3.32,0.7,4.09,2.11h0.06v-9.03h4.69V471.75z M806.16,462.62c0-2.17-0.88-3.26-2.64-3.26c-0.75,0-1.4,0.31-1.95,0.93
			c-0.55,0.62-0.88,1.4-1,2.33H806.16z M810.51,465.5h-9.9c0.16,2.2,1.55,3.3,4.17,3.3c1.67,0,3.14-0.39,4.4-1.18V471
			c-1.4,0.75-3.22,1.12-5.47,1.12c-2.45,0-4.35-0.68-5.71-2.04c-1.35-1.36-2.03-3.25-2.03-5.68c0-2.52,0.73-4.52,2.2-5.99
			c1.46-1.47,3.26-2.21,5.39-2.21c2.21,0,3.93,0.66,5.14,1.97c1.21,1.32,1.82,3.1,1.82,5.35V465.5z M794.34,471.57
			c-0.69,0.36-1.74,0.55-3.13,0.55c-3.3,0-4.95-1.72-4.95-5.14v-6.95h-2.46v-3.46h2.46v-3.27l4.67-1.34v4.61h3.41v3.46h-3.41v6.14
			c0,1.58,0.63,2.37,1.88,2.37c0.5,0,1.01-0.14,1.53-0.43V471.57z M781.22,471.75h-4.68v-15.18h4.68V471.75z M778.91,454.16
			c-0.79,0-1.44-0.23-1.94-0.7c-0.51-0.47-0.76-1.04-0.76-1.73c0-0.7,0.25-1.28,0.76-1.72c0.5-0.45,1.15-0.67,1.94-0.67
			c0.8,0,1.45,0.22,1.95,0.67c0.5,0.45,0.75,1.02,0.75,1.72c0,0.71-0.25,1.3-0.75,1.75C780.36,453.94,779.71,454.16,778.91,454.16z
			 M772.83,471.75h-4.67v-8.66c0-2.21-0.81-3.3-2.43-3.3c-0.77,0-1.4,0.33-1.88,0.99c-0.49,0.66-0.73,1.49-0.73,2.47v8.5h-4.68V463
			c0-2.14-0.8-3.21-2.39-3.21c-0.8,0-1.44,0.31-1.92,0.95c-0.48,0.63-0.72,1.49-0.72,2.58v8.44h-4.68v-15.18h4.68v2.37h0.06
			c0.49-0.81,1.16-1.47,2.04-1.98c0.88-0.51,1.83-0.76,2.87-0.76c2.15,0,3.61,0.94,4.4,2.83c1.16-1.89,2.85-2.83,5.1-2.83
			c3.3,0,4.95,2.03,4.95,6.11V471.75z M744.78,471.75h-4.68v-15.18h4.68V471.75z M742.46,454.16c-0.79,0-1.44-0.23-1.94-0.7
			c-0.51-0.47-0.76-1.04-0.76-1.73c0-0.7,0.25-1.28,0.76-1.72c0.5-0.45,1.15-0.67,1.94-0.67c0.8,0,1.45,0.22,1.95,0.67
			c0.5,0.45,0.75,1.02,0.75,1.72c0,0.71-0.25,1.3-0.75,1.75C743.92,453.94,743.27,454.16,742.46,454.16z M737.69,471.75h-12.66
			v-21.26h4.79v17.37h7.87V471.75z M709.07,462.62c0-2.17-0.88-3.26-2.64-3.26c-0.75,0-1.4,0.31-1.95,0.93
			c-0.55,0.62-0.88,1.4-1,2.33H709.07z M713.41,465.5h-9.9c0.16,2.2,1.55,3.3,4.17,3.3c1.67,0,3.14-0.39,4.4-1.18V471
			c-1.4,0.75-3.22,1.12-5.47,1.12c-2.45,0-4.35-0.68-5.71-2.04c-1.35-1.36-2.03-3.25-2.03-5.68c0-2.52,0.73-4.52,2.2-5.99
			c1.46-1.47,3.26-2.21,5.39-2.21c2.21,0,3.93,0.66,5.14,1.97c1.21,1.32,1.82,3.1,1.82,5.35V465.5z M697.25,471.57
			c-0.69,0.36-1.74,0.55-3.13,0.55c-3.3,0-4.95-1.72-4.95-5.14v-6.95h-2.46v-3.46h2.46v-3.27l4.67-1.34v4.61h3.41v3.46h-3.41v6.14
			c0,1.58,0.63,2.37,1.88,2.37c0.5,0,1.01-0.14,1.53-0.43V471.57z M679.96,465.58v-1.02l-2.76,0.35c-1.52,0.2-2.28,0.89-2.28,2.06
			c0,0.53,0.18,0.97,0.55,1.31c0.37,0.34,0.88,0.51,1.51,0.51c0.88,0,1.59-0.3,2.15-0.91C679.68,467.28,679.96,466.51,679.96,465.58
			z M684.36,471.75h-4.43v-2.18h-0.06c-1.02,1.7-2.53,2.55-4.52,2.55c-1.47,0-2.63-0.42-3.48-1.25c-0.85-0.84-1.27-1.95-1.27-3.35
			c0-2.95,1.75-4.65,5.23-5.1l4.12-0.55c0-1.66-0.9-2.49-2.7-2.49c-1.81,0-3.53,0.54-5.16,1.61v-3.53c0.65-0.34,1.54-0.63,2.68-0.89
			c1.13-0.26,2.16-0.38,3.09-0.38c4.33,0,6.49,2.16,6.49,6.48V471.75z M670.19,456.57l-5.65,15.18h-5.34l-5.38-15.18h5.01l2.64,9.36
			c0.3,1.06,0.47,1.95,0.52,2.7h0.06c0.07-0.7,0.25-1.57,0.55-2.61l2.7-9.44H670.19z M651.79,471.75h-4.68v-15.18h4.68V471.75z
			 M649.47,454.16c-0.79,0-1.44-0.23-1.94-0.7c-0.51-0.47-0.76-1.04-0.76-1.73c0-0.7,0.25-1.28,0.76-1.72
			c0.5-0.45,1.15-0.67,1.94-0.67c0.8,0,1.45,0.22,1.95,0.67c0.5,0.45,0.75,1.02,0.75,1.72c0,0.71-0.25,1.3-0.75,1.75
			C650.93,453.94,650.28,454.16,649.47,454.16z M644.81,460.79c-0.57-0.31-1.22-0.46-1.97-0.46c-1.02,0-1.81,0.37-2.39,1.12
			c-0.57,0.75-0.86,1.76-0.86,3.05v7.25h-4.68v-15.18h4.68v2.82h0.06c0.74-2.06,2.08-3.09,4-3.09c0.5,0,0.88,0.06,1.16,0.18V460.79z
			 M621.5,454.16v6.63h1.88c2.55,0,3.83-1.12,3.83-3.35c0-2.19-1.28-3.28-3.83-3.28H621.5z M621.5,464.43v7.32h-4.79v-21.26h7.51
			c5.36,0,8.04,2.26,8.04,6.78c0,2.14-0.77,3.86-2.31,5.18c-1.54,1.32-3.59,1.98-6.16,1.98H621.5z M599.76,465.58v-1.02l-2.76,0.35
			c-1.52,0.2-2.28,0.89-2.28,2.06c0,0.53,0.18,0.97,0.55,1.31c0.37,0.34,0.88,0.51,1.51,0.51c0.88,0,1.59-0.3,2.15-0.91
			C599.48,467.28,599.76,466.51,599.76,465.58z M604.16,471.75h-4.43v-2.18h-0.06c-1.02,1.7-2.53,2.55-4.52,2.55
			c-1.47,0-2.63-0.42-3.48-1.25c-0.85-0.84-1.27-1.95-1.27-3.35c0-2.95,1.75-4.65,5.23-5.1l4.12-0.55c0-1.66-0.9-2.49-2.7-2.49
			c-1.81,0-3.53,0.54-5.16,1.61v-3.53c0.65-0.34,1.54-0.63,2.68-0.89c1.13-0.26,2.16-0.38,3.09-0.38c4.33,0,6.49,2.16,6.49,6.48
			V471.75z M587.58,471.75h-4.68v-15.18h4.68V471.75z M585.27,454.16c-0.79,0-1.44-0.23-1.94-0.7c-0.51-0.47-0.76-1.04-0.76-1.73
			c0-0.7,0.25-1.28,0.76-1.72c0.5-0.45,1.15-0.67,1.94-0.67c0.8,0,1.45,0.22,1.95,0.67c0.5,0.45,0.75,1.02,0.75,1.72
			c0,0.71-0.25,1.3-0.75,1.75C586.72,453.94,586.08,454.16,585.27,454.16z M574.36,464.37v-1.14c0-0.99-0.29-1.81-0.86-2.46
			c-0.57-0.65-1.32-0.98-2.24-0.98c-1.04,0-1.85,0.4-2.43,1.22c-0.58,0.82-0.88,1.94-0.88,3.36c0,1.34,0.28,2.36,0.85,3.08
			c0.57,0.72,1.35,1.08,2.34,1.08c0.95,0,1.73-0.38,2.32-1.14C574.06,466.63,574.36,465.62,574.36,464.37z M578.96,471.75h-4.69
			v-2.09h-0.06c-1.07,1.64-2.64,2.46-4.7,2.46c-1.9,0-3.43-0.67-4.58-2.01c-1.16-1.34-1.74-3.21-1.74-5.61
			c0-2.51,0.64-4.52,1.91-6.03c1.28-1.51,2.95-2.27,5.01-2.27c1.96,0,3.32,0.7,4.09,2.11h0.06v-9.03h4.69V471.75z M560.39,471.75
			h-4.67v-8.44c0-2.35-0.84-3.53-2.52-3.53c-0.81,0-1.48,0.31-2,0.93c-0.53,0.62-0.79,1.42-0.79,2.37v8.66h-4.68v-15.18h4.68v2.4
			h0.06c1.12-1.85,2.74-2.77,4.88-2.77c3.36,0,5.04,2.09,5.04,6.26V471.75z M541.36,471.75h-4.79v-21.26h4.79V471.75z"/>
	</g>
</g>
</svg>
